<?xml version="1.0" standalone="no"?>
<!DOCTYPE svg PUBLIC "-//W3C//DTD SVG 20010904//EN"
 "http://www.w3.org/TR/2001/REC-SVG-20010904/DTD/svg10.dtd">
<svg version="1.0" xmlns="http://www.w3.org/2000/svg"
 width="700.000000pt" height="700.000000pt" viewBox="0 0 700.000000 700.000000"
 preserveAspectRatio="xMidYMid meet">
<metadata>
Created by potrace 1.11, written by Peter Selinger 2001-2013
</metadata>
<g transform="translate(0.000000,700.000000) scale(0.100000,-0.100000)"
fill="#000000" stroke="none">
<path d="M4190 5847 c-3 -3 -21 -7 -40 -10 -19 -3 -46 -7 -60 -10 -108 -25
-198 -48 -420 -109 -140 -38 -277 -76 -305 -83 -27 -8 -234 -64 -460 -125
-499 -136 -535 -145 -755 -204 -290 -78 -367 -107 -485 -187 -118 -79 -230
-209 -283 -329 -35 -80 -42 -101 -53 -148 -6 -26 -13 -56 -15 -67 -10 -43 -12
-213 -3 -270 18 -116 88 -285 152 -370 12 -16 278 -287 592 -602 314 -316 571
-578 573 -583 2 -5 -16 -14 -40 -20 -177 -47 -495 -134 -548 -149 -36 -11
-144 -40 -240 -66 -429 -114 -441 -119 -477 -188 -21 -41 -20 -117 3 -153 15
-25 726 -739 815 -819 46 -41 132 -96 199 -127 210 -97 392 -97 745 0 143 39
531 145 665 181 58 16 149 41 203 56 54 14 106 28 115 30 9 3 76 20 147 40
145 40 364 99 440 119 28 8 111 30 185 51 74 20 151 41 170 46 65 15 207 76
271 114 72 44 184 147 233 214 72 97 128 227 152 351 12 63 11 234 -3 300 -16
81 -64 204 -111 284 -27 47 -171 197 -609 636 -315 317 -573 579 -573 583 0 4
5 7 12 7 12 0 242 62 917 246 171 46 316 91 330 102 55 41 79 115 61 183 -10
35 -73 103 -433 463 -253 253 -448 439 -486 465 -79 54 -186 103 -271 126 -61
16 -299 33 -310 22z m218 -352 c47 -9 115 -39 170 -76 42 -29 625 -600 618
-606 -4 -5 -544 -155 -606 -168 -8 -2 -123 -33 -255 -69 -132 -36 -243 -66
-248 -66 -11 0 -155 145 -195 197 -148 191 -127 479 49 653 122 121 285 168
467 135z m-911 -197 c-3 -13 -14 -58 -25 -100 -63 -251 8 -530 188 -739 l48
-55 -139 -38 -139 -37 -344 344 c-189 189 -363 360 -386 380 -36 30 -40 38
-26 43 13 5 793 216 825 223 2 1 1 -9 -2 -21z m-1267 -382 c30 -4 89 -24 130
-44 71 -34 99 -59 492 -450 229 -228 430 -424 447 -435 53 -33 115 -26 366 42
127 34 250 68 275 75 l45 12 616 -616 c649 -648 669 -671 705 -795 17 -58 23
-188 11 -246 -8 -41 -48 -130 -78 -174 -61 -90 -124 -141 -225 -182 -60 -25
-82 -28 -174 -28 -123 0 -143 4 -228 46 -75 37 -90 50 -530 489 -189 188 -358
350 -375 361 -20 12 -50 19 -80 19 -50 0 -116 -16 -476 -115 l-134 -37 -629
628 c-346 346 -644 652 -662 679 -195 296 -30 698 314 768 69 14 108 14 190 3z
m1689 -2620 c190 -190 357 -353 371 -364 14 -11 23 -22 20 -25 -3 -2 -50 -16
-105 -30 -55 -14 -158 -42 -230 -61 -319 -86 -500 -134 -503 -132 -1 2 4 22
12 44 23 65 39 159 41 246 2 78 -24 255 -43 292 -5 10 -19 42 -32 69 -31 69
-83 153 -121 195 -17 19 -28 35 -23 37 30 10 251 71 258 72 5 1 165 -154 355
-343z m-909 75 c137 -142 188 -262 176 -416 -13 -185 -115 -340 -277 -419 -90
-44 -120 -50 -229 -50 -96 0 -187 26 -263 73 -59 38 -612 590 -601 601 5 5 54
20 109 35 300 79 743 199 870 235 55 16 107 29 115 29 8 1 53 -39 100 -88z"/>
</g>
</svg>
