<?xml version="1.0" standalone="no"?>
<!DOCTYPE svg PUBLIC "-//W3C//DTD SVG 20010904//EN"
 "http://www.w3.org/TR/2001/REC-SVG-20010904/DTD/svg10.dtd">
<svg version="1.0" xmlns="http://www.w3.org/2000/svg"
 width="700.000000pt" height="700.000000pt" viewBox="0 0 700.000000 700.000000"
 preserveAspectRatio="xMidYMid meet">
<metadata>
Created by potrace 1.14, written by Peter Selinger 2001-2017
</metadata>
<g transform="translate(0.000000,700.000000) scale(0.100000,-0.100000)"
fill="#000000" stroke="none">
<path d="M4455 6553 c-128 -7 -156 -14 -2250 -583 -225 -61 -491 -133 -590
-160 -204 -56 -327 -102 -430 -162 -257 -150 -439 -402 -507 -700 -16 -71 -21
-126 -21 -233 0 -183 29 -315 104 -472 76 -159 101 -187 876 -964 l744 -745
-58 -17 c-32 -8 -375 -102 -763 -207 -388 -105 -726 -198 -751 -206 -52 -17
-111 -72 -134 -126 -20 -50 -19 -124 4 -173 26 -54 1071 -1096 1159 -1154 146
-97 323 -161 501 -181 107 -12 175 -8 311 17 112 20 2764 743 2900 790 270 93
449 228 588 441 63 96 108 199 143 322 21 76 24 105 24 270 0 206 -12 270 -79
430 -79 185 -71 177 -864 972 -405 406 -734 739 -731 741 2 3 346 97 764 211
418 113 776 210 795 216 46 13 106 63 129 109 31 59 35 103 16 168 -16 58 -21
62 -563 604 -317 316 -574 565 -612 591 -205 144 -453 214 -705 201z m220
-458 c85 -22 176 -67 243 -119 63 -49 779 -763 772 -769 -7 -6 -1412 -387
-1426 -387 -6 0 -70 60 -142 134 -111 115 -136 147 -171 218 -22 46 -48 110
-56 143 -19 77 -19 234 0 310 59 229 237 408 465 469 74 20 240 20 315 1z
m-1180 -252 c-4 -10 -18 -61 -33 -113 -22 -82 -25 -117 -26 -250 -1 -111 4
-176 16 -230 41 -183 123 -348 245 -494 51 -61 59 -76 45 -80 -109 -33 -318
-86 -328 -84 -8 2 -233 222 -501 490 l-488 487 530 144 c292 80 534 146 539
146 4 1 5 -7 1 -16z m-1621 -498 c38 -8 106 -31 150 -52 80 -37 85 -41 631
-584 588 -586 591 -588 690 -589 33 0 177 35 415 99 l365 100 816 -817 817
-817 41 -85 c55 -112 75 -209 67 -325 -10 -170 -67 -296 -186 -416 -201 -202
-503 -247 -763 -112 -65 33 -121 86 -597 559 -289 287 -541 530 -560 540 -71
37 -133 27 -524 -80 l-359 -98 -832 833 c-770 773 -834 839 -869 906 -134 261
-89 559 114 764 155 155 370 219 584 174z m2141 -3366 c231 -231 446 -443 478
-470 35 -30 53 -51 45 -54 -59 -20 -1059 -287 -1063 -284 -2 3 5 34 16 69 73
234 58 506 -41 744 -32 76 -119 215 -179 286 l-30 36 167 46 c92 25 172 47
177 47 6 1 199 -188 430 -420z m-1153 72 c97 -99 123 -132 157 -202 53 -109
71 -183 71 -294 0 -176 -64 -330 -189 -455 -211 -211 -525 -250 -786 -98 -56
33 -144 115 -437 406 -202 201 -366 368 -363 370 5 5 1400 389 1421 391 6 0
63 -52 126 -118z"/>
</g>
</svg>
